<?xml version="1.0" encoding="UTF-8"?>
<svg version="1.1" xmlns="http://www.w3.org/2000/svg" width="1500" height="700">
<path d="M0 0 C27.72 0 55.44 0 84 0 C88.49950757 11.24876893 88.49950757 11.24876893 89.92504883 15.85180664 C90.25185135 16.89969864 90.57865387 17.94759064 90.9153595 19.02723694 C91.25911118 20.14360031 91.60286285 21.25996368 91.95703125 22.41015625 C92.53377533 24.2643451 93.11052196 26.11853317 93.6873579 27.97269344 C94.30395998 29.9572507 94.91861421 31.94240173 95.53271484 33.92773438 C97.52583271 40.3704479 99.53187409 46.80914495 101.53629684 53.24834824 C102.24487487 55.52509231 102.95297677 57.80198411 103.66104126 60.07888794 C108.65536319 76.13300113 113.71342777 92.16690246 118.77416611 108.20017624 C126.62488566 133.07538741 134.43755215 157.96211365 142.20513916 182.86340332 C147.1625586 198.75497894 152.14080082 214.63979482 157.1484375 230.515625 C157.40836739 231.3398143 157.66829727 232.1640036 157.93610382 233.01316833 C160.48604355 241.09826824 163.03739247 249.18291933 165.59286118 257.2662735 C174.04704097 284.01245553 174.04704097 284.01245553 177.6640625 295.984375 C177.90965912 296.79255676 178.15525574 297.60073853 178.40829468 298.43341064 C180 303.75616135 180 303.75616135 180 306 C154.26 306 128.52 306 102 306 C95.41217398 285.41304368 89.15972461 264.7190737 83 244 C50.66 243.67 18.32 243.34 -15 243 C-16.32 248.28 -17.64 253.56 -19 259 C-20.10939346 262.87729793 -21.23537141 266.73588735 -22.41796875 270.58984375 C-22.72068192 271.58585098 -23.02339508 272.58185822 -23.33528137 273.60804749 C-23.96434748 275.67442701 -24.59534304 277.74022015 -25.22827148 279.80541992 C-26.20130077 282.98256239 -27.16644594 286.16202972 -28.13085938 289.34179688 C-28.74693712 291.3621191 -29.36345655 293.38230671 -29.98046875 295.40234375 C-30.26899216 296.35318344 -30.55751556 297.30402313 -30.8547821 298.28367615 C-31.12208633 299.15291214 -31.38939056 300.02214813 -31.66479492 300.91772461 C-31.89921799 301.68442978 -32.13364105 302.45113495 -32.37516785 303.24107361 C-33 305 -33 305 -34 306 C-35.96369153 306.0940067 -37.93079199 306.11743381 -39.89672852 306.11352539 C-41.15796036 306.11344986 -42.4191922 306.11337433 -43.71864319 306.11329651 C-45.10539794 306.1081891 -46.49215229 306.10297309 -47.87890625 306.09765625 C-49.28995209 306.09579201 -50.70099857 306.09436814 -52.11204529 306.09336853 C-55.83240535 306.08954379 -59.5527266 306.0797139 -63.27307129 306.06866455 C-67.06680781 306.05844948 -70.86055058 306.05387071 -74.65429688 306.04882812 C-82.10288231 306.03809158 -89.55143572 306.0210157 -97 306 C-96.45229182 298.1127529 -93.89748547 290.89886956 -91.43359375 283.4453125 C-90.96260731 282.00239374 -90.4923014 280.5592527 -90.02262878 279.11590576 C-89.02260595 276.04708905 -88.01824 272.97974348 -87.01031494 269.91351318 C-85.42125534 265.07900384 -83.84217859 260.241273 -82.26513672 255.40283203 C-81.73433222 253.77462173 -81.20350947 252.14641739 -80.67266846 250.51821899 C-80.27906506 249.31094084 -80.27906506 249.31094084 -79.87751007 248.07927322 C-79.08141526 245.6387366 -78.28435973 243.19851579 -77.48699951 240.75839233 C-73.14877551 227.48005782 -68.86963851 214.1835705 -64.625 200.875 C-63.9888564 198.88270338 -63.35262597 196.89043448 -62.71630859 194.89819336 C-61.76908523 191.93238515 -60.8219393 188.96655247 -59.87518311 186.00059509 C-56.11605446 174.22579169 -52.33899091 162.45674379 -48.5625 150.6875 C-47.84976245 148.46598618 -47.13703458 146.24446926 -46.42431641 144.02294922 C-44.99665399 139.57305634 -43.56890838 135.12319016 -42.14111328 130.67333984 C-39.30015941 121.81904711 -36.4601106 112.96446412 -33.62011719 104.10986328 C-32.21341762 99.72405643 -30.8065049 95.33831805 -29.39941406 90.95263672 C-26.10737217 80.69137471 -22.81673416 70.42966872 -19.53091431 60.16641235 C-17.99477842 55.36858231 -16.45786624 50.57100109 -14.92089844 45.7734375 C-14.19508925 43.50712229 -13.46965183 41.24068797 -12.74462891 38.97412109 C-11.73306793 35.81186247 -10.72017155 32.65003418 -9.70703125 29.48828125 C-9.42015945 28.59027298 -9.13328766 27.69226471 -8.83772278 26.76704407 C-5.96740901 17.81788318 -2.97272571 8.91817712 0 0 Z M34 81 C33.71487045 81.93864395 33.42974091 82.8772879 33.13597107 83.84437561 C30.4157277 92.79936394 27.6954192 101.75433249 24.97505093 110.70928288 C23.30394768 116.21025494 21.63288295 121.71123869 19.96188927 127.21224403 C19.41961264 128.99737042 18.8772964 130.78248477 18.33493996 132.5675869 C17.00805412 136.93493649 15.68169379 141.30244408 14.35653687 145.6703186 C12.13831161 152.97966447 9.91610194 160.28749435 7.66064453 167.58544922 C7.32621841 168.67087509 6.9917923 169.75630096 6.64723206 170.87461853 C6.05359491 172.79854837 5.45665916 174.72146526 4.85557556 176.64308167 C4.47859276 177.86667641 4.47859276 177.86667641 4.09399414 179.11499023 C3.87989395 179.80229721 3.66579376 180.48960419 3.44520569 181.19773865 C2.88009128 183.17600303 2.88009128 183.17600303 3 186 C23.79 186 44.58 186 66 186 C64.15631956 178.62527823 62.29378059 171.35895998 60.08911133 164.10058594 C59.81557327 163.19175156 59.54203522 162.28291718 59.26020813 161.34654236 C58.3701492 158.39167484 57.47613488 155.43802088 56.58203125 152.484375 C55.95830534 150.41651727 55.33483022 148.34858388 54.71159363 146.28057861 C53.08164744 140.8745496 51.44832681 135.46954601 49.81427002 130.0647583 C48.14299688 124.53468014 46.47496037 119.00362596 44.80664062 113.47265625 C41.54090408 102.6474869 38.27159715 91.82339947 35 81 C34.67 81 34.34 81 34 81 Z " fill="#E95420" transform="translate(158,198)"/>
<path d="M0 0 C15.21070153 12.0823867 21.09842613 28.65129317 23.72402954 47.46572876 C25.28487325 61.26294738 24.70165978 75.35027607 24.63474822 89.21429229 C24.61578678 93.81596895 24.61421585 98.4176537 24.610672 103.0193634 C24.60140798 111.70278116 24.57687201 120.38608341 24.54662353 129.06945068 C24.51290204 138.96811464 24.49654923 148.86678459 24.48153722 158.76549184 C24.4503163 179.09959907 24.39537633 199.43354829 24.33056641 219.76757812 C2.22056641 219.76757812 -19.88943359 219.76757812 -42.66943359 219.76757812 C-42.73001953 209.76316406 -42.79060547 199.75875 -42.85302734 189.45117188 C-42.89354675 183.09374627 -42.93429569 176.7363235 -42.97607422 170.37890625 C-43.04226941 160.29957509 -43.10755711 150.2202442 -43.16674805 140.14086914 C-43.20987281 132.79807269 -43.25621826 125.45530456 -43.30631214 118.11255223 C-43.33268753 114.230429 -43.35753104 110.34831056 -43.37850761 106.4661541 C-43.39837 102.79966799 -43.42259262 99.13323466 -43.44992447 95.46679688 C-43.46347991 93.50519124 -43.47262379 91.5435566 -43.48155212 89.58192444 C-42.80522885 66.84304343 -42.80522885 66.84304343 -52.74755859 47.46289062 C-59.41363287 41.58265438 -66.0785578 41.00643129 -74.75146484 41.38867188 C-82.65562309 42.15308199 -88.78161456 44.72054734 -94.14208984 50.67382812 C-102.92368054 62.71201895 -104.11799865 77.97847661 -104.10180664 92.39208984 C-104.11085224 93.79316048 -104.12118616 95.19422328 -104.13269043 96.59527588 C-104.15995881 100.35054714 -104.16950322 104.10566707 -104.1755445 107.86102438 C-104.18500789 111.8034967 -104.21121681 115.74585941 -104.23554993 119.68826294 C-104.27900168 127.13221097 -104.30767893 134.57613747 -104.33087331 142.02017319 C-104.36313308 152.0945184 -104.41857066 162.16873541 -104.47261906 172.24298286 C-104.55700539 188.08447617 -104.6107308 203.92592057 -104.66943359 219.76757812 C-127.10943359 219.76757812 -149.54943359 219.76757812 -172.66943359 219.76757812 C-172.66943359 144.85757813 -172.66943359 69.94757813 -172.66943359 -7.23242188 C-151.87943359 -7.23242188 -131.08943359 -7.23242188 -109.66943359 -7.23242188 C-109.33943359 3.65757812 -109.00943359 14.54757812 -108.66943359 25.76757812 C-106.02943359 21.80757813 -103.38943359 17.84757812 -100.66943359 13.76757812 C-97.72674249 10.28608442 -94.84464875 7.00848738 -91.66943359 3.76757812 C-90.98365234 3.04570312 -90.29787109 2.32382812 -89.59130859 1.58007812 C-67.8514148 -19.67670692 -23.45322997 -17.31382055 0 0 Z " fill="#E95420" transform="translate(539.66943359375,284.232421875)"/>
<path d="M0 0 C21.78 0 43.56 0 66 0 C66.0093457 4.72868408 66.01869141 9.45736816 66.02832031 14.3293457 C66.06210742 29.96364019 66.11746607 45.59780355 66.18390274 61.23199177 C66.22365265 70.70975833 66.25606567 80.18744236 66.27099609 89.6652832 C66.28403363 97.92955682 66.3110518 106.1936485 66.35461307 114.45781964 C66.37718073 118.83060448 66.39291351 123.20316532 66.39188385 127.57601357 C66.39113445 131.69901228 66.4091967 135.82151671 66.44116783 139.94438744 C66.44962766 141.45071022 66.4514436 142.9570887 66.44580269 144.46342468 C66.41332761 154.47563047 66.93578566 163.86625557 73.375 172 C78.96939939 176.26239954 83.44451541 177.53366247 90.3125 177.4375 C91.066521 177.42992676 91.82054199 177.42235352 92.59741211 177.41455078 C98.4752033 177.24072296 103.02488986 176.26935809 108 173 C108.69351563 172.56429687 109.38703125 172.12859375 110.1015625 171.6796875 C116.820606 167.07450038 122.11205867 161.06665842 124 153 C124.73012191 148.50136884 125.13075247 144.17091204 125.15821838 139.61549377 C125.1680072 138.37740463 125.17779602 137.13931549 125.18788147 135.8637085 C125.19378402 134.51013222 125.19959456 133.15655554 125.20532227 131.80297852 C125.21491261 130.36353786 125.22492336 128.92409996 125.23532104 127.48466492 C125.26225092 123.59265924 125.28332465 119.70064158 125.30332303 115.80859494 C125.32525649 111.73532532 125.35260903 107.66209212 125.37937927 103.58885193 C125.42920696 95.88259053 125.47418243 88.17630882 125.51740164 80.47000784 C125.57611314 70.05153263 125.64234644 59.6331054 125.70815182 49.21467304 C125.81157119 32.8098144 125.90496352 16.40491431 126 0 C148.44 0 170.88 0 194 0 C194 74.91 194 149.82 194 227 C173.21 227 152.42 227 131 227 C130.67 216.44 130.34 205.88 130 195 C128.02 198.3 126.04 201.6 124 205 C112.69750493 219.73466635 98.19876096 227.94082178 80 231 C75.05351607 231.41382788 70.14943111 231.47752326 65.1875 231.4375 C63.21172974 231.42614014 63.21172974 231.42614014 61.19604492 231.41455078 C45.03398023 231.14110801 30.47471262 228.23679173 18.25 216.875 C0.91478228 198.33034849 -0.17239353 172.61864564 -0.11352539 148.60473633 C-0.11324279 146.97751874 -0.11340268 145.35030102 -0.1139679 143.7230835 C-0.11425302 139.33749976 -0.10840258 134.95194377 -0.10139394 130.56636643 C-0.09511274 125.97130365 -0.09455285 121.37624012 -0.09336853 116.78117371 C-0.09026921 108.09399717 -0.08207479 99.40683333 -0.07201904 90.71966237 C-0.06081432 80.82358763 -0.05533649 70.92751226 -0.05032361 61.03143275 C-0.03989092 40.68761319 -0.02156295 20.34381101 0 0 Z " fill="#E95420" transform="translate(847,277)"/>
<path d="M0 0 C2.47050541 0.00315115 4.93979858 -0.02035131 7.41015625 -0.0456543 C31.09047228 -0.14050794 53.87923056 5.3317317 71.5 22.08129883 C72.23863281 22.81864258 72.97726562 23.55598633 73.73828125 24.31567383 C74.36347656 24.92926758 74.98867187 25.54286133 75.6328125 26.17504883 C82.80467299 33.75164185 93.73828125 49.62634673 93.73828125 60.31567383 C77.56828125 64.60567383 61.39828125 68.89567383 44.73828125 73.31567383 C41.27328125 66.38567383 41.27328125 66.38567383 37.73828125 59.31567383 C33.31220775 53.85392456 33.31220775 53.85392456 28.05078125 50.12817383 C27.28378906 49.66024414 26.51679687 49.19231445 25.7265625 48.71020508 C17.27078589 44.76417599 9.51142778 43.83951223 0.23828125 43.94067383 C-0.82519531 43.92907227 -1.88867188 43.9174707 -2.984375 43.90551758 C-12.36301582 43.94004018 -20.93907424 45.06841123 -27.921875 51.78833008 C-31.39825439 55.75119987 -31.72376026 59.93741333 -31.5625 65.03833008 C-31.06028082 68.84084676 -29.92723197 71.53395295 -27.26171875 74.31567383 C-16.35062249 81.77358798 0.32931263 82.06553826 13.11895752 83.81982422 C73.0979982 92.11388305 73.0979982 92.11388305 90.21875 113.23364258 C102.23730315 129.70122312 105.87973974 149.56680281 102.91577148 169.60107422 C99.5483967 190.03281778 88.95507271 206.98409474 72.140625 219.11254883 C51.76530609 232.71615909 28.38799004 236.8877415 4.27929688 236.70678711 C1.73903767 236.69067862 -0.79963151 236.70676382 -3.33984375 236.72583008 C-28.98438285 236.75922865 -55.33111759 231.39904625 -75.26171875 214.31567383 C-75.85082031 213.8696582 -76.43992187 213.42364258 -77.046875 212.96411133 C-89.61754351 203.1710165 -97.00739878 187.33092077 -101.26171875 172.31567383 C-101.26171875 171.32567383 -101.26171875 170.33567383 -101.26171875 169.31567383 C-95.17525405 167.88883395 -89.09492177 166.73814164 -82.9140625 165.80786133 C-82.05792862 165.67751495 -81.20179474 165.54716858 -80.31971741 165.41287231 C-78.52418426 165.14071112 -76.72839836 164.87021252 -74.93237305 164.60131836 C-72.20191663 164.19107917 -69.47305471 163.77119125 -66.74414062 163.35083008 C-64.98837015 163.0859173 -63.23251348 162.82157501 -61.4765625 162.55786133 C-60.6711351 162.43289276 -59.8657077 162.30792419 -59.03587341 162.1791687 C-54.05434448 161.44490621 -49.29751073 161.2014933 -44.26171875 161.31567383 C-43.84921875 162.24508789 -43.43671875 163.17450195 -43.01171875 164.13208008 C-37.73999942 175.59725632 -32.45123116 181.44974929 -20.484375 186.27270508 C-5.06331911 191.26351953 15.8875209 192.66194036 30.73828125 185.31567383 C37.22554024 181.83865542 41.33016934 178.74116839 43.61328125 171.56567383 C43.7902032 166.96570303 42.99621312 163.34716274 40.73828125 159.31567383 C32.61212787 150.89855843 16.98769812 150.82977924 6.11328125 149.50317383 C-60.39777758 140.79661537 -60.39777758 140.79661537 -79.95996094 117.06958008 C-83.9920517 111.63699567 -86.76592706 105.57258872 -89.26171875 99.31567383 C-89.64199219 98.37723633 -90.02226563 97.43879883 -90.4140625 96.47192383 C-95.94515319 79.13947373 -92.9780904 58.43627141 -85.69921875 42.19067383 C-75.79966866 23.75617329 -58.59257233 11.34347205 -38.80932617 5.15258789 C-25.87536556 1.28649785 -13.45594739 -0.03575892 0 0 Z " fill="#E95420" transform="translate(1335.26171875,271.684326171875)"/>
<path d="M0 0 C0.99 0 1.98 0 3 0 C3.27263672 1.24716797 3.27263672 1.24716797 3.55078125 2.51953125 C3.92783203 4.14955078 3.92783203 4.14955078 4.3125 5.8125 C4.55613281 6.89144531 4.79976562 7.97039062 5.05078125 9.08203125 C6.03050867 12.09378591 6.61912745 13.04032997 9 15 C15.42376255 17.47943823 22.50087613 17.30697872 29.28125 17.30078125 C30.33477661 17.30506638 31.38830322 17.3093515 32.47375488 17.31376648 C34.68903895 17.31947925 36.90434176 17.32003272 39.11962891 17.31567383 C42.49023645 17.31250917 45.85996909 17.3360285 49.23046875 17.36132812 C51.39322807 17.36360111 53.55598973 17.36430462 55.71875 17.36328125 C56.71588013 17.372491 57.71301025 17.38170074 58.74035645 17.39118958 C65.31746342 17.34812436 72.47164103 17.00171605 77.70324707 12.55097961 C79.48472561 10.42024457 79.72870413 8.52998326 80.1875 5.8125 C80.34605469 4.91144531 80.50460937 4.01039063 80.66796875 3.08203125 C80.77753906 2.39496094 80.88710938 1.70789063 81 1 C81.99 1 82.98 1 84 1 C84.07011265 14.63237904 84.12311776 28.26471383 84.15543652 41.89723778 C84.17096306 48.2302229 84.19195755 54.56308293 84.22631836 60.89599609 C84.25938344 67.02985452 84.27695023 73.16359413 84.28463173 79.29753494 C84.29009202 81.61499523 84.3007484 83.93245047 84.31719017 86.24985886 C84.61725142 130.37628463 76.51103438 167.73307874 45 200 C44.27425781 200.78761719 43.54851562 201.57523438 42.80078125 202.38671875 C27.37557073 218.7243262 5.76008255 230.02884926 -16 235 C-16.98355469 235.24234375 -17.96710938 235.4846875 -18.98046875 235.734375 C-46.84421911 241.55078551 -75.20906632 233.57641512 -99 219 C-116.30215359 207.34075501 -130.16292499 192.74327617 -141 175 C-141.54551514 174.11103027 -141.54551514 174.11103027 -142.10205078 173.20410156 C-151.5154772 157.55704944 -156.62667669 140.0182706 -159 122 C-159.13019531 121.05511719 -159.26039063 120.11023438 -159.39453125 119.13671875 C-162.83322099 88.92209827 -157.63202491 53.26404982 -144 26 C-141.6550293 24.94677734 -141.6550293 24.94677734 -138.57421875 23.8359375 C-136.91422852 23.23652344 -136.91422852 23.23652344 -135.22070312 22.625 C-134.05474609 22.2125 -132.88878906 21.8 -131.6875 21.375 C-130.53314453 20.95476562 -129.37878906 20.53453125 -128.18945312 20.1015625 C-119.51414113 17 -119.51414113 17 -115 17 C-115.51170374 21.03976638 -117.33744147 22.38914963 -120.4375 24.875 C-137.8795357 40.12745062 -148.14626489 64.3190877 -151 87 C-151.26733792 91.83729669 -151.28017824 96.6563931 -151.25 101.5 C-151.25773438 102.74136719 -151.26546875 103.98273438 -151.2734375 105.26171875 C-151.25937638 111.93371917 -150.84718119 118.18643172 -149.42871094 124.71289062 C-149 127 -149 127 -149 131 C-148.34 131 -147.68 131 -147 131 C-146.97421875 130.443125 -146.9484375 129.88625 -146.921875 129.3125 C-146.25372243 120.3228109 -142.7016756 113.10280246 -136 107 C-131.02986081 103.40595798 -126.27510491 100.33026868 -120 100 C-120.061875 99.0925 -120.12375 98.185 -120.1875 97.25 C-120.10494972 83.57417028 -113.57473533 70.8522622 -104.27734375 61.18359375 C-92.01724151 49.42819554 -77.43334535 45.61553645 -60.81933594 45.69946289 C-45.43584458 46.05636245 -33.65022075 51.0140965 -22 61 C-14.74 60.67 -7.48 60.34 0 60 C0 40.2 0 20.4 0 0 Z M6.6875 49.8125 C3.7795129 53.5821129 3 56.23078906 3 61 C4.54107422 61.31130859 4.54107422 61.31130859 6.11328125 61.62890625 C18.81680421 64.3771094 29.35360012 68.93073525 37 80 C40.01002471 85.00848373 41.96410394 89.6546426 43.125 95.375 C43.69869629 97.8938 43.69869629 97.8938 45 100 C47.6825509 101.50838518 50.26044909 102.31550119 53.21484375 103.1640625 C60.05520519 105.21713031 63.97896191 109.58055714 67.7109375 115.5078125 C69.77381359 119.4960396 70.96365196 123.6455201 72 128 C72.33 128 72.66 128 73 128 C75.67072553 111.60611246 77.27083462 95.88116416 76.6875 79.25 C76.63577637 77.70566284 76.63577637 77.70566284 76.58300781 76.13012695 C76.23598745 62.36604142 76.23598745 62.36604142 71 50 C64.06362395 45.58594252 56.32376076 45.8423095 48.375 45.83203125 C47.01640869 45.82703865 47.01640869 45.82703865 45.63037109 45.82194519 C43.72428899 45.81690531 41.81819814 45.81453595 39.91210938 45.81469727 C37.00896631 45.81250677 34.1062012 45.79430878 31.203125 45.77539062 C29.34375129 45.77245682 27.48437579 45.77047194 25.625 45.76953125 C24.76438965 45.76234573 23.9037793 45.75516022 23.01708984 45.74775696 C17.0723771 45.77012284 11.53696281 46.01156969 6.6875 49.8125 Z M-80 86 C-87.42252242 95.25249914 -88.25543492 102.88227682 -87.83398438 114.38867188 C-87.65150245 123.21702178 -87.65150245 123.21702178 -91 127 C-94.32105665 129.38378066 -97.883544 129.42193818 -101.875 129.8125 C-107.84177944 130.60807059 -111.2235807 131.22394029 -115 136 C-116 138.5 -116 138.5 -115 141 C-110.15930325 146.07120612 -106.50611689 146.84918163 -99.47828674 147.15148926 C-97.53139198 147.17028137 -97.53139198 147.17028137 -95.54516602 147.18945312 C-94.82401611 147.19774643 -94.10286621 147.20603973 -93.35986328 147.21458435 C-91.80322446 147.23189908 -90.24656082 147.24708876 -88.68988228 147.26036072 C-86.22165054 147.2815266 -83.75354243 147.30853771 -81.28538513 147.33703613 C-76.04447176 147.39652005 -70.80349973 147.4487729 -65.5625 147.5 C-59.48966193 147.55940124 -53.41688527 147.62181397 -47.34416008 147.69187927 C-44.92083121 147.71829303 -42.49749547 147.73920328 -40.07411194 147.7598877 C-38.57748111 147.77650424 -37.0808531 147.79337725 -35.58422852 147.81054688 C-34.28550308 147.82307495 -32.98677765 147.83560303 -31.6486969 147.84851074 C-28 148 -28 148 -24.21348572 148.57434082 C-20.99005224 149.24005311 -20.99005224 149.24005311 -18 148 C-16.6625305 147.90880499 -15.32104195 147.86934698 -13.98046875 147.8671875 C-13.20509766 147.86589844 -12.42972656 147.86460937 -11.63085938 147.86328125 C-10.82455078 147.86714844 -10.01824219 147.87101562 -9.1875 147.875 C-8.39279297 147.87113281 -7.59808594 147.86726563 -6.77929688 147.86328125 C-3.28726291 147.86905798 -0.06712112 147.98869702 3.38671875 148.5703125 C6.10131884 149.22509254 6.10131884 149.22509254 9 148 C10.47105325 147.87636893 11.94633415 147.79930986 13.421875 147.75390625 C14.71351563 147.70459961 14.71351563 147.70459961 16.03125 147.65429688 C17.82801422 147.59363027 19.62489377 147.53627877 21.421875 147.48242188 C28.04360893 147.22129695 33.59193511 146.85621669 39 142.6875 C41.22807291 140.21464628 41.22807291 140.21464628 41.125 137.4375 C39.6243663 134.18612698 37.97778332 132.99186852 35 131 C31.18019381 130.04607639 27.38756894 129.49247818 23.49609375 128.90625 C19.73265382 127.93069909 18.36879396 127.01166959 16 124 C14.21618058 120.43236116 14.33611478 116.07345328 14.01367188 112.1171875 C13.31464277 105.46094574 10.59970766 100.95702982 5.375 96.6875 C4.78460937 96.19636719 4.19421875 95.70523438 3.5859375 95.19921875 C0.60451293 92.9447918 -1.95645316 92.55974858 -5.69140625 92.56640625 C-8.55297609 93.10385845 -10.08938612 94.2941053 -12.4375 96 C-17.21886071 99.13056432 -21.17521514 99.63490205 -26.75 99.6875 C-27.4711499 99.70619141 -28.1922998 99.72488281 -28.93530273 99.74414062 C-34.55594973 99.62456622 -37.06875913 97.98436575 -41 94 C-41.61875 93.05125 -42.2375 92.1025 -42.875 91.125 C-47.70470685 84.02248993 -53.59661854 79.83061214 -62 78 C-68.53434648 78 -75.38568702 81.52919436 -80 86 Z M-28.66137695 176.96505737 C-33.01107597 178.10831884 -37.04881824 178.27014051 -41.52734375 178.22705078 C-42.33805832 178.22734283 -43.14877289 178.22763489 -43.98405457 178.22793579 C-46.63531601 178.22655431 -49.2862883 178.21104944 -51.9375 178.1953125 C-53.78694505 178.19157816 -55.6363921 178.18873318 -57.48583984 178.18673706 C-62.3322708 178.17913377 -67.17858016 178.15951392 -72.02496338 178.1373291 C-76.97886511 178.11679922 -81.93278666 178.10772012 -86.88671875 178.09765625 C-96.59119899 178.07626469 -106.29558935 178.04216898 -116 178 C-99.69586416 194.64656571 -74.7430037 203.19785341 -52 206 C-50.77410156 206.16628906 -50.77410156 206.16628906 -49.5234375 206.3359375 C-19.68999434 209.75339074 11.2338653 205.43996781 35.578125 186.9296875 C38.80188094 184.36108196 41.95223917 181.77684876 45 179 C45 178.67 45 178.34 45 178 C43.72322388 178.01571045 43.72322388 178.01571045 42.4206543 178.03173828 C39.20940179 178.06618115 35.99824461 178.0910723 32.78686523 178.10986328 C31.40695056 178.11981266 30.02705635 178.13337705 28.6472168 178.15087891 C20.99631522 178.24536879 13.79847499 178.11469347 6.33081055 176.34155273 C2.88363276 175.83640958 0.0148103 176.71575814 -3.3203125 177.546875 C-9.37029607 178.56990429 -15.94060926 177.70696732 -21.890625 176.33203125 C-25.12354001 175.80015921 -25.12354001 175.80015921 -28.66137695 176.96505737 Z " fill="#E75421" transform="translate(741,266)"/>
<path d="M0 0 C0 22.44 0 44.88 0 68 C-4.95 68.33 -9.9 68.66 -15 69 C-27.74698526 71.39794772 -37.43765388 76.16172378 -45 87 C-53.33923107 101.53574305 -56.11003966 117.45369521 -56.20532227 134.00585938 C-56.21522186 135.07992035 -56.22512146 136.15398132 -56.23532104 137.2605896 C-56.26674831 140.7882878 -56.29161884 144.31599943 -56.31640625 147.84375 C-56.33699201 150.29854673 -56.35798889 152.75334004 -56.37937927 155.20812988 C-56.43443246 161.65243759 -56.48391531 168.09677639 -56.53222656 174.5411377 C-56.59142289 182.2822508 -56.65755826 190.02330738 -56.72252655 197.76437378 C-56.82032512 209.50954784 -56.90932551 221.25475905 -57 233 C-78.78 233 -100.56 233 -123 233 C-123 158.09 -123 83.18 -123 6 C-102.54 6 -82.08 6 -61 6 C-60.67 17.22 -60.34 28.44 -60 40 C-59.030625 37.6075 -58.06125 35.215 -57.0625 32.75 C-51.06839504 18.7207866 -42.33448145 7.65758196 -27.9453125 1.7265625 C-17.74494425 -2.08321359 -16.40731644 0 0 0 Z " fill="#E95420" transform="translate(1219,271)"/>
<path d="M0 0 C4.7520791 3.36833193 8.02916655 7.00899981 11 12 C13.51364822 10.99994641 16.01956063 9.99165169 18.5078125 8.9296875 C28.5220733 4.89408986 37.05981753 4.77404442 47 9 C47.66644531 9.25523437 48.33289063 9.51046875 49.01953125 9.7734375 C58.46274394 13.8338327 64.71978912 21.78235795 68.98046875 30.9140625 C70.54805845 35.65887422 70.52404826 40.07006448 70 45 C71.27875 44.87625 72.5575 44.7525 73.875 44.625 C80.7529787 44.63583146 85.95415589 48.13972202 90.859375 52.74609375 C96.00230238 58.46187195 98.57451506 63.96410797 98.5 71.75 C98.49033203 72.80562134 98.49033203 72.80562134 98.48046875 73.88256836 C98.1906372 82.19711103 95.30878149 88.09764968 89.3125 93.875 C81.14469689 100.19384768 73.14361407 101.62240522 63 101.375 C61.96488281 101.37371094 60.92976562 101.37242187 59.86328125 101.37109375 C52.28190104 101.28190104 52.28190104 101.28190104 50 99 C49.8125 96.4375 49.8125 96.4375 50 94 C51.64059012 92.35940988 53.55282328 92.85230307 55.8125 92.82421875 C56.80636719 92.80037109 57.80023437 92.77652344 58.82421875 92.75195312 C60.90996081 92.70962257 62.99595393 92.67803276 65.08203125 92.65820312 C72.7666373 92.44611194 79.11367412 91.21044312 85.15625 86.21875 C85.5996875 85.6515625 86.043125 85.084375 86.5 84.5 C86.9640625 83.9328125 87.428125 83.365625 87.90625 82.78125 C90.78320344 78.09592583 90.58200116 72.31178526 90 67 C88.18341569 61.60214949 84.50836847 58.22026319 80 55 C76.36657877 53.28371057 73.24752607 52.69139693 69.25 52.4375 C64.10014306 52.10014306 64.10014306 52.10014306 63 51 C62.86579028 49.0226434 62.7683739 47.04275524 62.6875 45.0625 C62.0634185 36.42937254 59.82628136 28.97857383 53.83984375 22.53515625 C46.80446571 16.66487266 38.67691306 14.62100613 29.6953125 14.71484375 C23.81331522 15.33714201 18.70493117 17.62864232 14.125 21.3125 C12 23 12 23 10.1015625 22.9296875 C7.06952834 21.58837871 6.04923409 19.56711253 4.25 16.8125 C-1.77466231 8.24705008 -8.67728904 3.31549532 -19 1 C-30.16469832 -0.29008933 -39.30697243 1.31386197 -48.56640625 7.796875 C-56.0989582 14.00161301 -60.40131804 21.34168453 -62 31 C-62.19629584 34.48569697 -62.14660285 37.94850585 -62.0625 41.4375 C-62.0282422 43.2277873 -61.99806197 45.01815895 -61.97265625 46.80859375 C-61.94570679 47.98119751 -61.94570679 47.98119751 -61.91821289 49.17749023 C-62 51 -62 51 -63 52 C-64.99886914 52.10708228 -66.99931497 52.18516299 -69 52.25 C-76.29263148 52.78575253 -81.52081852 54.38983757 -86.66015625 59.72265625 C-90.6256099 65.10197638 -90.88206489 70.51536911 -90 77 C-88.7421546 82.11779844 -86.10169098 85.71864722 -82 89 C-76.76029167 91.59227805 -71.79509077 92.43890656 -65.96337891 92.40063477 C-65.20464478 92.40761383 -64.44591064 92.4145929 -63.66418457 92.42178345 C-61.18486082 92.44159658 -58.70595792 92.44125936 -56.2265625 92.44140625 C-54.49399708 92.45318818 -52.76144177 92.4665544 -51.02890015 92.48143005 C-46.48908241 92.51747739 -41.9493545 92.53778276 -37.40942383 92.55297852 C-30.12230228 92.57789721 -22.83537878 92.61733686 -15.54844284 92.67487907 C-13.00349044 92.69123321 -10.45872532 92.69498667 -7.91372681 92.69789124 C-6.36256582 92.70766175 -4.81140782 92.71792407 -3.26025391 92.72875977 C-2.55065521 92.72620682 -1.84105652 92.72365387 -1.10995483 92.72102356 C3.77251066 92.77251066 3.77251066 92.77251066 6 95 C5.46428571 98.53571429 5.46428571 98.53571429 4 100 C1.58322478 100.10564591 -0.80511371 100.14678328 -3.22265625 100.14526367 C-3.97887772 100.14862228 -4.73509918 100.1519809 -5.51423645 100.15544128 C-8.03034076 100.16498771 -10.54637867 100.1668969 -13.0625 100.16796875 C-14.81070992 100.17118117 -16.55891956 100.17454523 -18.30712891 100.17805481 C-21.98259096 100.18405697 -25.65802948 100.18589384 -29.33349609 100.18530273 C-34.02628271 100.18520159 -38.71891636 100.19879877 -43.41166687 100.21607494 C-47.02867311 100.22724275 -50.64564309 100.2292204 -54.26266479 100.22869301 C-55.99128746 100.22986804 -57.71991121 100.23426291 -59.44851685 100.24202538 C-82.80483048 100.33700304 -82.80483048 100.33700304 -91.7578125 91.62109375 C-97.2846399 85.16029029 -99.8831768 78.20968246 -99.41015625 69.6953125 C-98.04698326 60.73731859 -94.06063163 54.6020368 -87 49 C-81.4603919 45.13210796 -76.66589411 44.44450882 -70 45 C-70.33 44.34 -70.66 43.68 -71 43 C-72.08088211 28.69909822 -68.44544035 17.32358535 -59.3125 6.3125 C-43.15868191 -11.05134192 -19.60867885 -11.84551589 0 0 Z " fill="#3EBCDA" transform="translate(704,332)"/>
<path d="M0 0 C4.89006497 -0.28211913 7.28284649 -0.20444268 11 3 C13.14733927 3.70514846 13.14733927 3.70514846 15 4 C15 4.66 15 5.32 15 6 C16.32 6.33 17.64 6.66 19 7 C19 7.66 19 8.32 19 9 C24.45045918 9.99099258 28.42842959 10.50275905 33.5 8.0625 C41.22975092 4.36969091 49.42071999 3.60922305 57.6875 6.25 C59.13418286 6.81017205 60.57231672 7.39303668 62 8 C62.66644531 8.25523437 63.33289063 8.51046875 64.01953125 8.7734375 C73.46274394 12.8338327 79.71978912 20.78235795 83.98046875 29.9140625 C85.54805845 34.65887422 85.52404826 39.07006448 85 44 C86.27875 43.87625 87.5575 43.7525 88.875 43.625 C95.7529787 43.63583146 100.95415589 47.13972202 105.859375 51.74609375 C111.00230238 57.46187195 113.57451506 62.96410797 113.5 70.75 C113.49355469 71.45374756 113.48710938 72.15749512 113.48046875 72.88256836 C113.1906372 81.19711103 110.30878149 87.09764968 104.3125 92.875 C96.14469689 99.19384768 88.14361407 100.62240522 78 100.375 C76.96488281 100.37371094 75.92976562 100.37242187 74.86328125 100.37109375 C67.28190104 100.28190104 67.28190104 100.28190104 65 98 C64.8125 95.4375 64.8125 95.4375 65 93 C66.64059012 91.35940988 68.55282328 91.85230307 70.8125 91.82421875 C71.80636719 91.80037109 72.80023437 91.77652344 73.82421875 91.75195312 C75.90996081 91.70962257 77.99595393 91.67803276 80.08203125 91.65820312 C87.7666373 91.44611194 94.11367412 90.21044312 100.15625 85.21875 C100.5996875 84.6515625 101.043125 84.084375 101.5 83.5 C101.9640625 82.9328125 102.428125 82.365625 102.90625 81.78125 C105.78320344 77.09592583 105.58200116 71.31178526 105 66 C103.18341569 60.60214949 99.50836847 57.22026319 95 54 C91.36657877 52.28371057 88.24752607 51.69139693 84.25 51.4375 C79.10014306 51.10014306 79.10014306 51.10014306 78 50 C77.86579028 48.0226434 77.7683739 46.04275524 77.6875 44.0625 C77.0634185 35.42937254 74.82628136 27.97857383 68.83984375 21.53515625 C61.80446571 15.66487266 53.67691306 13.62100613 44.6953125 13.71484375 C38.81331522 14.33714201 33.70493117 16.62864232 29.125 20.3125 C27 22 27 22 25.1015625 21.9296875 C22.06952834 20.58837871 21.04923409 18.56711253 19.25 15.8125 C14.03868039 8.3580892 8.4603261 4.17262229 0 1 C0 0.67 0 0.34 0 0 Z " fill="#3D94E3" transform="translate(689,333)"/>
<path d="M0 0 C0.66 0 1.32 0 2 0 C2.07476563 0.62648438 2.14953125 1.25296875 2.2265625 1.8984375 C2.62876796 4.39842045 3.0849696 6.63653287 4 9 C6.77443477 10.59152808 6.77443477 10.59152808 10 11 C10.77988281 11.33902344 11.55976562 11.67804688 12.36328125 12.02734375 C15.22825406 13.08420039 17.3392234 13.1336985 20.375 13.125 C24.90317355 13.46064629 26.96558798 14.28508482 30 17.6875 C34.40818715 23.36304096 36.56908011 28.53199233 36.5 35.75 C36.49355469 36.45374756 36.48710938 37.15749512 36.48046875 37.88256836 C36.1906372 46.19711103 33.30878149 52.09764968 27.3125 57.875 C19.14469689 64.19384768 11.14361407 65.62240522 1 65.375 C-0.03511719 65.37371094 -1.07023438 65.37242187 -2.13671875 65.37109375 C-9.71809896 65.28190104 -9.71809896 65.28190104 -12 63 C-12.1875 60.4375 -12.1875 60.4375 -12 58 C-10.35940988 56.35940988 -8.44717672 56.85230307 -6.1875 56.82421875 C-5.19363281 56.80037109 -4.19976563 56.77652344 -3.17578125 56.75195312 C-1.09003919 56.70962257 0.99595393 56.67803276 3.08203125 56.65820312 C10.7666373 56.44611194 17.11367412 55.21044312 23.15625 50.21875 C23.5996875 49.6515625 24.043125 49.084375 24.5 48.5 C24.9640625 47.9328125 25.428125 47.365625 25.90625 46.78125 C28.78320344 42.09592583 28.58200116 36.31178526 28 31 C26.18341569 25.60214949 22.50836847 22.22026319 18 19 C14.36657877 17.28371057 11.24752607 16.69139693 7.25 16.4375 C2.10014306 16.10014306 2.10014306 16.10014306 1 15 C0.76346477 12.47403741 0.57826308 9.96892793 0.4375 7.4375 C0.39431641 6.72658203 0.35113281 6.01566406 0.30664062 5.28320312 C0.20028223 3.52238088 0.09961154 1.7612168 0 0 Z " fill="#3576E6" transform="translate(766,368)"/>
<path d="M0 0 C4.33717026 3.09564506 7.58419826 6.16839651 10 11 C8.02 10.67 6.04 10.34 4 10 C4 9.34 4 8.68 4 8 C2.68 7.67 1.36 7.34 0 7 C0 6.34 0 5.68 0 5 C-0.94875 4.87625 -1.8975 4.7525 -2.875 4.625 C-6 4 -6 4 -8 2 C-11.62175895 1.27701234 -15.31686905 1.19020864 -19 1 C-20.20140625 0.92265625 -21.4028125 0.8453125 -22.640625 0.765625 C-33.83540493 0.35100352 -42.2196971 2.56894324 -50.9375 9.75 C-56.11761869 14.74243323 -59.52554984 20.18326591 -61 27.25 C-62.14942069 31.56032759 -63.64806245 33.15085308 -67 36 C-69.35953094 38.35953094 -69.49141413 39.77895617 -70 43 C-70.33 43 -70.66 43 -71 43 C-71.61347532 28.50380531 -68.64600241 17.56539202 -59.3125 6.3125 C-43.16431903 -11.04528254 -19.60195751 -11.85467618 0 0 Z " fill="#4DCADE" transform="translate(704,332)"/>
<path d="M0 0 C2.20270733 1.06056279 4.14877676 2.10939468 6.125 3.5625 C15.11030514 8.05515257 27.61509881 6.12823695 37.4765625 6.09765625 C39.25588949 6.09578803 41.03521699 6.09436603 42.81454468 6.09336853 C47.46691339 6.08957519 52.11925021 6.07977256 56.77160645 6.06866455 C61.53132699 6.05838152 66.29105276 6.05385623 71.05078125 6.04882812 C80.36720141 6.03814703 89.68359804 6.02110946 99 6 C99.625 7.875 99.625 7.875 100 10 C97.54555955 12.45444045 96.1876938 12.24218936 92.83769226 12.27105713 C91.76162468 12.26498444 91.76162468 12.26498444 90.66381836 12.25878906 C89.52926712 12.26404602 89.52926712 12.26404602 88.37179565 12.26940918 C85.86105266 12.27823914 83.35058983 12.27236888 80.83984375 12.265625 C79.0930628 12.26697227 77.34628222 12.26891333 75.59950256 12.27142334 C71.92998705 12.27437712 68.26056869 12.27007249 64.59106445 12.26074219 C59.90613685 12.24940638 55.22143989 12.25586799 50.53652096 12.26788712 C46.92379554 12.27514936 43.31112381 12.27279682 39.69839668 12.26763153 C37.97257014 12.266304 36.2467386 12.26791108 34.52091789 12.27259064 C11.49806082 12.32127057 11.49806082 12.32127057 4.4375 5.4375 C3.59058594 4.63183594 2.74367188 3.82617188 1.87109375 2.99609375 C0 1 0 1 0 0 Z " fill="#33A0E2" transform="translate(610,420)"/>
<path d="M0 0 C4.33717026 3.09564506 7.58419826 6.16839651 10 11 C8.02 10.67 6.04 10.34 4 10 C4 9.34 4 8.68 4 8 C2.68 7.67 1.36 7.34 0 7 C0 6.34 0 5.68 0 5 C-1.423125 4.814375 -1.423125 4.814375 -2.875 4.625 C-6 4 -6 4 -8 2 C-10.16447898 1.35987856 -10.16447898 1.35987856 -12.5625 0.9375 C-16.90277778 0.09722222 -16.90277778 0.09722222 -18 -1 C-21.36656497 -1.28104388 -24.74811334 -1.23189337 -28.125 -1.25 C-29.53265625 -1.2809375 -29.53265625 -1.2809375 -30.96875 -1.3125 C-38.41956994 -1.35424129 -42.7508575 0.28347188 -49.3125 3.75 C-50.199375 4.1625 -51.08625 4.575 -52 5 C-52.66 4.67 -53.32 4.34 -54 4 C-49.55273711 -2.59421739 -43.51226408 -5.25408369 -36.0390625 -7.62109375 C-23.30655511 -9.98709608 -10.89646462 -6.58985509 0 0 Z " fill="#4CBBE5" transform="translate(704,332)"/>
<path d="M0 0 C4.89006497 -0.28211913 7.28284649 -0.20444268 11 3 C13.14733927 3.70514846 13.14733927 3.70514846 15 4 C15 4.66 15 5.32 15 6 C16.32 6.33 17.64 6.66 19 7 C19 7.66 19 8.32 19 9 C24.45045918 9.99099258 28.42842959 10.50275905 33.5 8.0625 C42.51525177 3.75555609 51.53484899 4.14259592 61 7 C61 7.33 61 7.66 61 8 C59.92516357 8.03758423 59.92516357 8.03758423 58.82861328 8.07592773 C55.59388486 8.19169751 52.35946159 8.31450969 49.125 8.4375 C47.99707031 8.47681641 46.86914062 8.51613281 45.70703125 8.55664062 C44.63066406 8.59853516 43.55429687 8.64042969 42.4453125 8.68359375 C40.95281982 8.73858032 40.95281982 8.73858032 39.43017578 8.79467773 C36.99220499 8.84959532 36.99220499 8.84959532 35 10 C39.29 10.33 43.58 10.66 48 11 C48 11.33 48 11.66 48 12 C47.09121094 12.22042969 47.09121094 12.22042969 46.1640625 12.4453125 C40.18667758 14.04541246 35.40165668 16.30705865 30.2265625 19.6953125 C28.10893192 20.93616971 26.3967115 21.55130059 24 22 C22.15345613 19.72733062 20.32368703 17.46267656 18.64453125 15.0625 C13.57847526 7.89124649 8.12795429 4.15165574 0 1 C0 0.67 0 0.34 0 0 Z " fill="#2FA3DC" transform="translate(689,333)"/>
<path d="M0 0 C2.19163731 1.05523278 4.2761418 2.16888375 6.35295105 3.43902588 C16.76390927 9.57840474 26.64724929 9.53821496 38.35546875 9.390625 C40.11094005 9.38315002 41.86641978 9.37746304 43.62190247 9.37347412 C48.20707885 9.35831653 52.79173566 9.31912195 57.37670898 9.2746582 C62.06942724 9.23349043 66.76223073 9.21541751 71.45507812 9.1953125 C80.63694505 9.15261642 89.81842906 9.08448725 99 9 C99.33 8.34 99.66 7.68 100 7 C99.125 10.875 99.125 10.875 98 12 C95.58322478 12.10564591 93.19488629 12.14678328 90.77734375 12.14526367 C90.02112228 12.14862228 89.26490082 12.1519809 88.48576355 12.15544128 C85.96965924 12.16498771 83.45362133 12.1668969 80.9375 12.16796875 C79.18929008 12.17118117 77.44108044 12.17454523 75.69287109 12.17805481 C72.01740904 12.18405697 68.34197052 12.18589384 64.66650391 12.18530273 C59.97371729 12.18520159 55.28108364 12.19879877 50.58833313 12.21607494 C46.97132689 12.22724275 43.35435691 12.2292204 39.73733521 12.22869301 C38.00871254 12.22986804 36.28008879 12.23426291 34.55148315 12.24202538 C11.51287223 12.33571111 11.51287223 12.33571111 4.4375 5.4375 C3.59058594 4.63183594 2.74367188 3.82617188 1.87109375 2.99609375 C0 1 0 1 0 0 Z " fill="#2680BF" transform="translate(610,420)"/>
<path d="M0 0 C0 0.99 0 1.98 0 3 C-0.66 3 -1.32 3 -2 3 C-2.2475 3.598125 -2.495 4.19625 -2.75 4.8125 C-6.10045096 10.67578918 -12.99675035 11.97594883 -19 14 C-20.11375 14.4125 -21.2275 14.825 -22.375 15.25 C-27.87297551 16.38751217 -33.4042307 16.34872185 -39 16 C-40 15 -40 15 -40.125 12.5 C-40 10 -40 10 -39 9 C-37.41062418 8.87867934 -35.81634864 8.82034795 -34.22265625 8.7890625 C-33.23330078 8.76070313 -32.24394531 8.73234375 -31.22460938 8.703125 C-29.15185255 8.65191421 -27.07891696 8.60740235 -25.00585938 8.5703125 C-15.25362722 8.26889129 -7.14854715 6.96042749 0 0 Z " fill="#3A78E8" transform="translate(794,416)"/>
<path d="M0 0 C-0.35051155 6.83497521 -4.04513099 12.1852588 -8.89453125 16.8046875 C-17.18936739 23.38165817 -24.68330449 24.43928418 -35 24.1875 C-36.06089844 24.17396484 -37.12179687 24.16042969 -38.21484375 24.14648438 C-40.81043687 24.11140879 -43.40494067 24.06225844 -46 24 C-46 23.67 -46 23.34 -46 23 C-44.19015625 22.85304688 -44.19015625 22.85304688 -42.34375 22.703125 C-40.72908825 22.55292391 -39.11450895 22.4018347 -37.5 22.25 C-36.70851563 22.188125 -35.91703125 22.12625 -35.1015625 22.0625 C-30.01101451 21.56179036 -26.14049471 20.41260157 -21.66625977 17.91650391 C-20 17 -20 17 -17.4375 16.125 C-12.91939689 14.03972164 -8.88368844 10.95341656 -6.8125 6.375 C-6.544375 5.59125 -6.27625 4.8075 -6 4 C-2.54054054 0 -2.54054054 0 0 0 Z " fill="#2958C0" transform="translate(802,409)"/>
<path d="M0 0 C0.66561447 0.16076523 1.33122894 0.32153046 2.01701355 0.48716736 C5.59786153 1.10278387 9.10612135 1.17602104 12.7277832 1.20532227 C13.87004616 1.22017166 13.87004616 1.22017166 15.03538513 1.23532104 C17.54048606 1.2667882 20.04560592 1.2916347 22.55078125 1.31640625 C24.29241923 1.33698856 26.03405235 1.35798537 27.77568054 1.37937927 C32.35080018 1.43446807 36.92596391 1.48393532 41.50115967 1.53222656 C46.17333889 1.58253813 50.84545439 1.63817371 55.51757812 1.69335938 C64.67833093 1.80077951 73.83913916 1.90226009 83 2 C83 2.33 83 2.66 83 3 C78.17487079 3.77888546 73.54501606 4.13038278 68.65942383 4.14526367 C67.96256973 4.14862228 67.26571564 4.1519809 66.54774475 4.15544128 C64.26748832 4.16486305 61.98730588 4.16688933 59.70703125 4.16796875 C58.11236034 4.17118531 56.51768971 4.17454968 54.92301941 4.17805481 C51.59198318 4.18402253 48.26097283 4.18589693 44.92993164 4.18530273 C40.66280073 4.18520075 36.39583486 4.19890024 32.12874317 4.21607494 C28.84050228 4.22718811 25.55230156 4.22922222 22.26404381 4.22869301 C20.69037999 4.22987233 19.1167151 4.23429145 17.54306984 4.24202538 C15.34605865 4.25182003 13.14940956 4.24895045 10.95239258 4.24291992 C9.70331619 4.24434494 8.45423981 4.24576996 7.16731262 4.24723816 C4.17793493 4.01388947 2.50673399 3.57694935 0 2 C0 1.34 0 0.68 0 0 Z " fill="#57AFEA" transform="translate(625,423)"/>
<path d="M0 0 C0.95841797 -0.020625 1.91683594 -0.04125 2.90429688 -0.0625 C4.28391602 -0.07023437 4.28391602 -0.07023437 5.69140625 -0.078125 C6.53002197 -0.0874707 7.3686377 -0.09681641 8.23266602 -0.10644531 C10.89662899 0.32422526 11.76283326 1.19106706 13.4375 3.25 C12.20515625 3.19199219 10.9728125 3.13398438 9.703125 3.07421875 C-2.64708546 2.66558586 -12.36095443 3.45973257 -22.0625 11.9375 C-22.94421875 12.80955078 -22.94421875 12.80955078 -23.84375 13.69921875 C-25.5625 15.25 -25.5625 15.25 -27.71875 16.26953125 C-29.91778095 17.16727948 -29.91778095 17.16727948 -30.5625 20.25 C-31.5525 19.92 -32.5425 19.59 -33.5625 19.25 C-29.90271199 10.42345244 -23.13133575 5.08300971 -14.5625 1.25 C-9.77200447 -0.18253995 -4.96018754 0.02679372 0 0 Z " fill="#3ACCE3" transform="translate(675.5625,329.75)"/>
<path d="M0 0 C0 0.99 0 1.98 0 3 C-1.03125 2.83628906 -2.0625 2.67257812 -3.125 2.50390625 C-9.39649677 1.71996915 -15.69083019 1.89419524 -22 1.9375 C-23.87751953 1.94426758 -23.87751953 1.94426758 -25.79296875 1.95117188 C-28.86202941 1.96288585 -31.93098907 1.97928927 -35 2 C-24.87150807 -5.95032162 -11.5011646 -3.87213558 0 0 Z " fill="#55CDE9" transform="translate(694,327)"/>
<path d="M0 0 C0.66 0 1.32 0 2 0 C2.07476563 0.62648438 2.14953125 1.25296875 2.2265625 1.8984375 C2.62764851 4.39146229 3.10375476 6.63756715 4 9 C6.56457789 10.49812911 6.56457789 10.49812911 10 11 C11.78420495 11.58573748 13.55489999 12.21369985 15.3125 12.875 C16.17488281 13.18179687 17.03726563 13.48859375 17.92578125 13.8046875 C20 15 20 15 20.60546875 17.0703125 C20.73566406 17.70710938 20.86585938 18.34390625 21 19 C21.99 19.33 22.98 19.66 24 20 C23.67 20.99 23.34 21.98 23 23 C22.278125 22.38125 21.55625 21.7625 20.8125 21.125 C16.42816332 17.81239006 12.69490336 16.78332494 7.25 16.4375 C2.10014306 16.10014306 2.10014306 16.10014306 1 15 C0.76346477 12.47403741 0.57826308 9.96892793 0.4375 7.4375 C0.39431641 6.72658203 0.35113281 6.01566406 0.30664062 5.28320312 C0.20028223 3.52238088 0.09961154 1.7612168 0 0 Z " fill="#3373D0" transform="translate(766,368)"/>
<path d="M0 0 C0.33 0 0.66 0 1 0 C1.19384179 2.81219705 1.38036603 5.62454196 1.5625 8.4375 C1.61857422 9.23994141 1.67464844 10.04238281 1.73242188 10.86914062 C1.8616295 12.91062111 1.9351273 14.95546369 2 17 C-0.26639826 19.26639826 -5.54027651 18.45644914 -8.60546875 18.62109375 C-11.98873281 18.99874233 -14.82130394 19.80859191 -18 21 C-18 20.01 -18 19.02 -18 18 C-14.82317961 16.37284809 -11.71612379 14.89232282 -8.375 13.625 C-4.63832134 11.82585842 -3.09942999 10.55288152 -1 7 C-0.19777849 3.310252 -0.19777849 3.310252 0 0 Z " fill="#32A7C4" transform="translate(640,366)"/>
<path d="M0 0 C1.08796875 -0.00386719 2.1759375 -0.00773437 3.296875 -0.01171875 C4.42867187 -0.00011719 5.56046875 0.01148438 6.7265625 0.0234375 C7.850625 0.01183594 8.9746875 0.00023437 10.1328125 -0.01171875 C20.56330843 0.02526882 20.56330843 0.02526882 25.3515625 3.3984375 C25.8465625 4.3884375 25.8465625 4.3884375 26.3515625 5.3984375 C24.74748922 5.42552317 23.143284 5.44487233 21.5390625 5.4609375 C20.19908203 5.47833984 20.19908203 5.47833984 18.83203125 5.49609375 C16.3515625 5.3984375 16.3515625 5.3984375 13.3515625 4.3984375 C11.57989275 4.25007802 9.80388638 4.15073732 8.02734375 4.08203125 C6.99931641 4.04013672 5.97128906 3.99824219 4.91210938 3.95507812 C3.30432617 3.89610352 3.30432617 3.89610352 1.6640625 3.8359375 C0.58060547 3.79275391 -0.50285156 3.74957031 -1.61914062 3.70507812 C-4.29544541 3.59896912 -6.97184276 3.49691389 -9.6484375 3.3984375 C-6.41600784 0.50333818 -4.30155711 0.01472896 0 0 Z " fill="#44AFED" transform="translate(731.6484375,340.6015625)"/>
<path d="M0 0 C1.28594325 3.85782975 0.93808857 6.04662676 0 10 C-4.51127613 16.89959879 -10.44669371 18.60504923 -18 21 C-18 21.99 -18 22.98 -18 24 C-19.65 24.33 -21.3 24.66 -23 25 C-19.63183333 19.9716377 -16.95242955 16.026359 -11 14 C-8.125 13.8125 -8.125 13.8125 -6 14 C-6.12375 12.989375 -6.2475 11.97875 -6.375 10.9375 C-5.87943349 5.73405161 -3.62814154 3.55255526 0 0 Z " fill="#38C6E6" transform="translate(640,363)"/>
<path d="M0 0 C1.2065625 0.2475 1.2065625 0.2475 2.4375 0.5 C9.72493473 1.52279786 16.7284982 0.92336531 24 0 C23.443125 0.26683594 22.88625 0.53367187 22.3125 0.80859375 C18.90206515 2.565659 15.69155408 4.6313329 12.4375 6.66015625 C10.23744703 7.86948024 8.45014222 8.54059833 6 9 C3.59927045 6.11912454 1.52708963 3.43595166 0 0 Z " fill="#2D84AE" transform="translate(707,346)"/>
<path d="M0 0 C1.91015625 0.23046875 1.91015625 0.23046875 3.91015625 2.23046875 C3.35460069 6.78602431 3.35460069 6.78602431 1.91015625 8.23046875 C-3.82595486 8.5036169 -3.82595486 8.5036169 -6.08984375 8.23046875 C-6.74984375 7.57046875 -7.40984375 6.91046875 -8.08984375 6.23046875 C-7.32934219 -0.00564403 -6.14669459 0.12271078 0 0 Z " fill="#3485E8" transform="translate(734.08984375,424.76953125)"/>
<path d="M0 0 C8.25 0 16.5 0 25 0 C16.78857878 4.10571061 10.10431181 4.2464325 1 4 C0.67 2.68 0.34 1.36 0 0 Z " fill="#2468D6" transform="translate(754,428)"/>
<path d="M0 0 C0 0.99 0 1.98 0 3 C-18.48 3 -36.96 3 -56 3 C-56 2.67 -56 2.34 -56 2 C-54.794646 1.97494385 -53.58929199 1.9498877 -52.34741211 1.92407227 C-47.85398646 1.82954335 -43.36069909 1.72943561 -38.86743164 1.62768555 C-36.92670946 1.58450808 -34.98595348 1.54282169 -33.04516602 1.50268555 C-30.24745523 1.44456434 -27.44991186 1.38099284 -24.65234375 1.31640625 C-23.7916478 1.29969376 -22.93095184 1.28298126 -22.04417419 1.26576233 C-14.62643332 1.0854082 -7.42760975 -0.13030894 0 0 Z " fill="#329AEC" transform="translate(709,426)"/>
<path d="M0 0 C0.77214844 -0.020625 1.54429687 -0.04125 2.33984375 -0.0625 C8.09576704 -0.10240241 8.09576704 -0.10240241 10.24414062 1.77050781 C10.65857422 2.25874023 11.07300781 2.74697266 11.5 3.25 C10.26765625 3.19199219 9.0353125 3.13398438 7.765625 3.07421875 C-2.52172653 2.74025436 -10.21283082 3.33231493 -19.5 8.25 C-20.49 8.58 -21.48 8.91 -22.5 9.25 C-21.5 6.25 -21.5 6.25 -19.3203125 4.8984375 C-18.43085937 4.47820312 -17.54140625 4.05796875 -16.625 3.625 C-15.29855469 2.98691406 -15.29855469 2.98691406 -13.9453125 2.3359375 C-9.23341699 0.24343438 -5.07965673 0.03392091 0 0 Z " fill="#36ABC5" transform="translate(677.5,329.75)"/>
<path d="M0 0 C0.66 0 1.32 0 2 0 C2.53625 1.0725 3.0725 2.145 3.625 3.25 C5.73784662 7.01208302 8.32195063 8.74301516 12 11 C12 11.66 12 12.32 12 13 C12.99 13.33 13.98 13.66 15 14 C11.03426252 14.55520325 7.49629216 15.01566498 4.06640625 12.6875 C1.03293475 9.42851863 0.05581 7.58600504 -0.375 3.0625 C-0.25125 2.051875 -0.1275 1.04125 0 0 Z " fill="#39B0D8" transform="translate(613,412)"/>
<path d="M0 0 C0 0.33 0 0.66 0 1 C-1.05912598 1.029729 -1.05912598 1.029729 -2.13964844 1.06005859 C-5.34346994 1.15540415 -8.54664801 1.26504513 -11.75 1.375 C-12.86117187 1.4059375 -13.97234375 1.436875 -15.1171875 1.46875 C-16.72207031 1.52675781 -16.72207031 1.52675781 -18.359375 1.5859375 C-19.83615723 1.63306885 -19.83615723 1.63306885 -21.34277344 1.68115234 C-24.02695192 2.00323403 -25.64347139 2.7470887 -28 4 C-30.25 3.625 -30.25 3.625 -32 3 C-30.58521865 2.35004703 -29.16808513 1.70521278 -27.75 1.0625 C-26.96109375 0.70285156 -26.1721875 0.34320313 -25.359375 -0.02734375 C-17.11817391 -3.42479255 -8.36727406 -2.52596953 0 0 Z " fill="#77A7C6" transform="translate(750,340)"/>
<path d="M0 0 C0 0.33 0 0.66 0 1 C-0.89924194 1.06731323 -0.89924194 1.06731323 -1.81665039 1.13598633 C-4.56639992 1.34897455 -7.31428416 1.58059076 -10.0625 1.8125 C-11.00544922 1.88275391 -11.94839844 1.95300781 -12.91992188 2.02539062 C-20.08338038 2.64938527 -24.95681845 4.39228145 -31.3125 7.75 C-32.199375 8.1625 -33.08625 8.575 -34 9 C-34.66 8.67 -35.32 8.34 -36 8 C-30.46609808 1.1554371 -30.46609808 1.1554371 -26.015625 0.68359375 C-17.32244243 0.11547082 -8.71592917 -0.12086805 0 0 Z " fill="#43D0EA" transform="translate(686,328)"/>
<path d="M0 0 C-0.51949219 0.30292969 -1.03898438 0.60585938 -1.57421875 0.91796875 C-4.98928728 2.96953487 -8.11676266 4.91345174 -10.875 7.8125 C-11.57625 8.534375 -12.2775 9.25625 -13 10 C-13.66 10 -14.32 10 -15 10 C-16.56266521 11.099763 -16.56266521 11.099763 -18.125 12.5 C-19.07375 13.325 -20.0225 14.15 -21 15 C-19.37000655 9.02335735 -14.96529763 4.9382113 -9.90234375 1.62890625 C-6.14960173 -0.39827589 -4.18666632 -1.41102723 0 0 Z " fill="#5AC6DA" transform="translate(629,378)"/>
<path d="M0 0 C-4.38404409 4.38404409 -9.85357318 5.18738959 -15.8125 5.29296875 C-17.87520546 5.27326137 -19.93781445 5.23782868 -22 5.1875 C-23.06089844 5.17396484 -24.12179687 5.16042969 -25.21484375 5.14648438 C-27.81043687 5.11140879 -30.40494067 5.06225844 -33 5 C-33 4.67 -33 4.34 -33 4 C-32.22285645 3.91435791 -31.44571289 3.82871582 -30.64501953 3.74047852 C-27.13789633 3.35176055 -23.63145416 2.95720557 -20.125 2.5625 C-18.90167969 2.42779297 -17.67835938 2.29308594 -16.41796875 2.15429688 C-15.25136719 2.02216797 -14.08476563 1.89003906 -12.8828125 1.75390625 C-11.26463623 1.57323608 -11.26463623 1.57323608 -9.61376953 1.38891602 C-0.23736665 -0.00624649 -0.23736665 -0.00624649 0 0 Z " fill="#4D528E" transform="translate(789,428)"/>
<path d="M0 0 C4.89006497 -0.28211913 7.28284649 -0.20444268 11 3 C13.14733927 3.70514846 13.14733927 3.70514846 15 4 C15 4.66 15 5.32 15 6 C16.32 6.33 17.64 6.66 19 7 C19 7.66 19 8.32 19 9 C21.97 9.495 21.97 9.495 25 10 C24.67 10.66 24.34 11.32 24 12 C18.25 10.125 18.25 10.125 16 9 C16 8.34 16 7.68 16 7 C15.43152344 6.81824219 14.86304688 6.63648438 14.27734375 6.44921875 C9.39298997 4.85915366 4.68970973 3.09540222 0 1 C0 0.67 0 0.34 0 0 Z " fill="#34B4E7" transform="translate(689,333)"/>
<path d="M0 0 C2.5625718 -0.02710123 5.12485365 -0.04688771 7.6875 -0.0625 C8.40873047 -0.07087891 9.12996094 -0.07925781 9.87304688 -0.08789062 C13.71555382 -0.10543632 17.26639526 0.06475779 21 1 C21 1.66 21 2.32 21 3 C23.475 3.495 23.475 3.495 26 4 C26 4.66 26 5.32 26 6 C26.99 6 27.98 6 29 6 C29 6.66 29 7.32 29 8 C24.125 6.125 24.125 6.125 23 5 C21.50794753 4.63272554 20.00601352 4.3050154 18.5 4 C14.11111111 3.11111111 14.11111111 3.11111111 13 2 C10.81707226 1.76518307 8.62796826 1.58636677 6.4375 1.4375 C5.23996094 1.35371094 4.04242187 1.26992188 2.80859375 1.18359375 C1.88175781 1.12300781 0.95492187 1.06242187 0 1 C0 0.67 0 0.34 0 0 Z " fill="#36BFE5" transform="translate(673,329)"/>
<path d="M0 0 C-0.375 1.9375 -0.375 1.9375 -1 4 C-1.99 4.495 -1.99 4.495 -3 5 C-3.4125 5.70125 -3.825 6.4025 -4.25 7.125 C-6.46641314 10.76625016 -9.17191517 13.82412481 -12 17 C-13.32 16.67 -14.64 16.34 -16 16 C-15.236875 15.401875 -14.47375 14.80375 -13.6875 14.1875 C-9.57110765 10.97844781 -9.57110765 10.97844781 -7.0625 6.5625 C-5.70321164 3.28421631 -3.84018838 0 0 0 Z " fill="#2561D8" transform="translate(802,409)"/>
<path d="M0 0 C2.17834779 1.04883412 4.23362442 2.14721539 6.28125 3.4375 C9.07264287 5.04174878 11.77664419 6.1267793 14.8125 7.1875 C15.78832031 7.53167969 16.76414062 7.87585938 17.76953125 8.23046875 C18.50558594 8.48441406 19.24164062 8.73835938 20 9 C20 9.33 20 9.66 20 10 C14.99422795 10.86269689 11.41277717 10.9622158 7.109375 8.03125 C4.6113777 5.77591529 2.23530522 3.51590737 0 1 C0 0.67 0 0.34 0 0 Z " fill="#3290B5" transform="translate(610,420)"/>
<path d="M0 0 C0 0.33 0 0.66 0 1 C-0.62044189 1.01981934 -1.24088379 1.03963867 -1.88012695 1.06005859 C-4.69134537 1.15531845 -7.50182166 1.26499302 -10.3125 1.375 C-11.77719727 1.42140625 -11.77719727 1.42140625 -13.27148438 1.46875 C-14.67817383 1.52675781 -14.67817383 1.52675781 -16.11328125 1.5859375 C-16.97735596 1.6173584 -17.84143066 1.6487793 -18.73168945 1.68115234 C-21.27742445 1.87188037 -21.27742445 1.87188037 -24 4 C-26.6875 4.125 -26.6875 4.125 -29 4 C-21.29056631 -2.78430165 -9.47639554 -2.20176476 0 0 Z " fill="#7AC1CC" transform="translate(688,325)"/>
<path d="M0 0 C4.62 1.65 9.24 3.3 14 5 C14 5.66 14 6.32 14 7 C11.8537974 6.85970581 9.70803782 6.71261836 7.5625 6.5625 C6.36753906 6.48128906 5.17257812 6.40007812 3.94140625 6.31640625 C1 6 1 6 0 5 C0 3.35 0 1.7 0 0 Z " fill="#2764AE" transform="translate(767,378)"/>
<path d="M0 0 C2.16874252 0.50603992 3.99967627 0.99983813 6 2 C6 2.66 6 3.32 6 4 C6.99 4.33 7.98 4.66 9 5 C9 5.66 9 6.32 9 7 C13.62 7.66 18.24 8.32 23 9 C23 9.33 23 9.66 23 10 C13.90384397 10.55690751 8.12434499 8.34722348 1.28515625 2.3046875 C0 1 0 1 0 0 Z " fill="#309CCA" transform="translate(699,338)"/>
<path d="M0 0 C-3.82959933 2.61109045 -6.8261539 1.86230768 -11.25 1.125 C-12.51328125 0.92132813 -13.7765625 0.71765625 -15.078125 0.5078125 C-16.04234375 0.34023438 -17.0065625 0.17265625 -18 0 C-18 -0.33 -18 -0.66 -18 -1 C-11.79070742 -2.55232315 -5.82761178 -2.91380589 0 0 Z " fill="#3C8DC2" transform="translate(750,346)"/>
<path d="M0 0 C0.66 0 1.32 0 2 0 C2.07476563 0.62648438 2.14953125 1.25296875 2.2265625 1.8984375 C2.62976126 4.4045945 3.06591371 6.63654446 4 9 C6.97187717 10.46358065 6.97187717 10.46358065 10 11 C10.33 11.99 10.66 12.98 11 14 C9.51965236 13.52449439 8.04074979 13.04448784 6.5625 12.5625 C5.73878906 12.29566406 4.91507813 12.02882813 4.06640625 11.75390625 C2 11 2 11 1 10 C0.76712992 8.31816052 0.58735834 6.6287584 0.4375 4.9375 C0.35371094 4.01839844 0.26992188 3.09929687 0.18359375 2.15234375 C0.09271484 1.08693359 0.09271484 1.08693359 0 0 Z " fill="#2778CF" transform="translate(766,368)"/>
<path d="M0 0 C4.61513112 1.31860889 8.09897612 3.21355437 12 6 C11.01 6.33 10.02 6.66 9 7 C9 6.34 9 5.68 9 5 C6.03 4.67 3.06 4.34 0 4 C0 2.68 0 1.36 0 0 Z " fill="#5AC2E2" transform="translate(694,328)"/>
<path d="M0 0 C0.66 0.33 1.32 0.66 2 1 C1.66226563 1.556875 1.32453125 2.11375 0.9765625 2.6875 C-1.99258273 7.76765599 -3.84597168 12.22985841 -5 18 C-5.33 18 -5.66 18 -6 18 C-5.85915204 16.20793453 -5.71216299 14.41635083 -5.5625 12.625 C-5.48128906 11.62726563 -5.40007813 10.62953125 -5.31640625 9.6015625 C-5 7 -5 7 -4 5 C-3.34 5 -2.68 5 -2 5 C-1.855625 4.360625 -1.71125 3.72125 -1.5625 3.0625 C-1 1 -1 1 0 0 Z " fill="#4AB6C6" transform="translate(647,345)"/>
<path d="M0 0 C-2.24845077 2.24845077 -3.98898917 2.92379464 -6.9375 4.0625 C-8.25041016 4.57490234 -8.25041016 4.57490234 -9.58984375 5.09765625 C-11.38010907 5.76791766 -13.18647574 6.39549191 -15 7 C-14 4 -14 4 -12.36328125 2.83203125 C-8.06030271 0.69283621 -4.92614603 -0.4926146 0 0 Z " fill="#45ADBD" transform="translate(670,332)"/>
<path d="M0 0 C0.33 0.99 0.66 1.98 1 3 C2.918125 2.938125 2.918125 2.938125 4.875 2.875 C7.0546875 2.8046875 7.0546875 2.8046875 9 3 C9.66 3.66 10.32 4.32 11 5 C9.10511048 6.89488952 6.42860854 6.18019112 3.91015625 6.23046875 C2 6 2 6 0 4 C0 2.68 0 1.36 0 0 Z " fill="#516FB0" transform="translate(726,427)"/>
<path d="M0 0 C3.63 0.66 7.26 1.32 11 2 C9.25 4.0625 9.25 4.0625 7 6 C4.9375 6.0625 4.9375 6.0625 3 5 C1.25 2.4375 1.25 2.4375 0 0 Z " fill="#336F8F" transform="translate(709,349)"/>
<path d="M0 0 C-0.33 0.99 -0.66 1.98 -1 3 C-4.63 3 -8.26 3 -12 3 C-11.67 2.34 -11.34 1.68 -11 1 C-7.318488 -0.05186057 -3.80944893 -0.08859184 0 0 Z " fill="#2E89A1" transform="translate(642,381)"/>
<path d="M0 0 C5.07612318 -0.61528766 7.82982006 1.38341651 12 4 C12 4.33 12 4.66 12 5 C6.72209903 5.50265724 4.13774748 4.25108731 0 1 C0 0.67 0 0.34 0 0 Z " fill="#548ADB" transform="translate(778,377)"/>
<path d="M0 0 C0.8971875 0.309375 0.8971875 0.309375 1.8125 0.625 C0.843125 1.07875 -0.12625 1.5325 -1.125 2 C-4.25829582 3.28286221 -4.25829582 3.28286221 -5.1875 5.625 C-7.16638961 6.35193904 -9.16704558 7.02316251 -11.1875 7.625 C-11.1875 6.635 -11.1875 5.645 -11.1875 4.625 C-10.259375 4.17125 -9.33125 3.7175 -8.375 3.25 C-1.49671053 -0.25657895 -1.49671053 -0.25657895 0 0 Z " fill="#34AFCB" transform="translate(633.1875,379.375)"/>
<path d="M0 0 C1.98 0.99 3.96 1.98 6 3 C6 3.66 6 4.32 6 5 C6.99 5.33 7.98 5.66 9 6 C2.47692308 5.38461538 2.47692308 5.38461538 0.0625 3.4375 C-0.288125 2.963125 -0.63875 2.48875 -1 2 C-0.67 1.34 -0.34 0.68 0 0 Z " fill="#3AB5E4" transform="translate(619,420)"/>
<path d="M0 0 C1.875 0.3125 1.875 0.3125 4 1 C6 4 6 4 6 8 C5.34 8 4.68 8 4 8 C3.67 7.01 3.34 6.02 3 5 C2.484375 4.484375 1.96875 3.96875 1.4375 3.4375 C0.963125 2.963125 0.48875 2.48875 0 2 C0 1.34 0 0.68 0 0 Z " fill="#2D7EED" transform="translate(786,383)"/>
<path d="M0 0 C0.66 0.33 1.32 0.66 2 1 C-1.3 3.97 -4.6 6.94 -8 10 C-8.66 9.67 -9.32 9.34 -10 9 C-6.7 6.03 -3.4 3.06 0 0 Z " fill="#6AC6CE" transform="translate(653,331)"/>
<path d="M0 0 C6.48292295 -0.3669579 6.48292295 -0.3669579 8.9375 1.375 C10 3 10 3 10 5 C6.08788267 3.84414715 3.1254959 2.64465038 0 0 Z " fill="#42A3C0" transform="translate(689,333)"/>
<path d="M0 0 C-4.455 3.465 -4.455 3.465 -9 7 C-9.66 6.67 -10.32 6.34 -11 6 C-5.11504425 -1.27876106 -5.11504425 -1.27876106 0 0 Z " fill="#57D4E6" transform="translate(661,330)"/>
<path d="M0 0 C3.95820859 0.56545837 6.6659053 1.80902348 10 4 C7 5 7 5 3.875 3.6875 C1 2 1 2 0 0 Z " fill="#3086EB" transform="translate(774,377)"/>
<path d="M0 0 C3.375 0.3125 3.375 0.3125 7 1 C7.66 1.99 8.32 2.98 9 4 C6.03 3.67 3.06 3.34 0 3 C0 2.01 0 1.02 0 0 Z " fill="#55A9E4" transform="translate(749,342)"/>
<path d="M0 0 C0.8971875 0.309375 0.8971875 0.309375 1.8125 0.625 C1.1525 0.625 0.4925 0.625 -0.1875 0.625 C-0.1875 1.285 -0.1875 1.945 -0.1875 2.625 C-3.14414519 4.1033226 -5.92979737 3.68532783 -9.1875 3.625 C-8.2903125 3.191875 -8.2903125 3.191875 -7.375 2.75 C-1.52083333 -0.26071429 -1.52083333 -0.26071429 0 0 Z " fill="#205CCD" transform="translate(784.1875,426.375)"/>
<path d="M0 0 C-1.38081223 4.1424367 -3.59825558 5.32203099 -7 8 C-7.66 7.67 -8.32 7.34 -9 7 C-8.07347299 5.82460004 -7.13336613 4.65989423 -6.1875 3.5 C-5.66542969 2.8503125 -5.14335938 2.200625 -4.60546875 1.53125 C-3 0 -3 0 0 0 Z " fill="#3F6BD7" transform="translate(795,414)"/>
<path d="M0 0 C5.94 1.485 5.94 1.485 12 3 C12 3.33 12 3.66 12 4 C3.42857143 4.28571429 3.42857143 4.28571429 0 2 C0 1.34 0 0.68 0 0 Z " fill="#56AFD7" transform="translate(625,423)"/>
<path d="M0 0 C0.90105469 0.02707031 1.80210937 0.05414063 2.73046875 0.08203125 C3.76107422 0.13423828 3.76107422 0.13423828 4.8125 0.1875 C4.8125 0.5175 4.8125 0.8475 4.8125 1.1875 C2.9871875 1.4040625 2.9871875 1.4040625 1.125 1.625 C-2.01420377 2.01530953 -5.0950134 2.51101856 -8.1875 3.1875 C-5.67753317 0.01043235 -3.96125134 -0.15433447 0 0 Z " fill="#58D6EC" transform="translate(672.1875,325.8125)"/>
<path d="M0 0 C-3.85756507 2.15305957 -6.55129785 3.39253254 -11 3 C-7.18178484 -0.02823961 -4.81391924 -1.49397494 0 0 Z " fill="#7EBCC0" transform="translate(670,326)"/>
</svg>
